<?xml version="1.0" standalone="no"?>
<!DOCTYPE svg PUBLIC "-//W3C//DTD SVG 20010904//EN"
 "http://www.w3.org/TR/2001/REC-SVG-20010904/DTD/svg10.dtd">
<svg version="1.0" xmlns="http://www.w3.org/2000/svg"
 width="236.000000pt" height="152.000000pt" viewBox="0 0 236.000000 152.000000"
 preserveAspectRatio="xMidYMid meet">

<g transform="translate(0.000000,152.000000) scale(0.100000,-0.100000)"
fill="#000000" stroke="none">
<path d="M0 760 l0 -760 1180 0 1180 0 0 760 0 760 -1180 0 -1180 0 0 -760z
m370 254 c0 -135 4 -244 9 -242 4 2 104 112 222 246 l213 242 473 0 474 0 -3
-87 -3 -88 -257 -3 -258 -2 0 -125 0 -125 225 0 226 0 -3 -82 -3 -83 -222 -3
-223 -2 0 -135 0 -135 265 0 265 0 0 -90 0 -90 -468 0 -469 0 -163 226 -163
227 -69 -71 -68 -70 0 -156 0 -156 -100 0 -100 0 0 525 0 525 100 0 100 0 0
-246z m1790 -699 l0 -105 -85 0 -85 0 0 105 0 105 85 0 85 0 0 -105z"/>
<path d="M841 1031 c-106 -123 -194 -229 -195 -235 0 -7 87 -132 194 -279
l195 -268 3 251 c1 137 1 364 0 502 l-3 252 -194 -223z"/>
</g>
</svg>
